<?xml version="1.0" standalone="no"?>
<!DOCTYPE svg PUBLIC "-//W3C//DTD SVG 20010904//EN"
 "http://www.w3.org/TR/2001/REC-SVG-20010904/DTD/svg10.dtd">
<svg version="1.0" xmlns="http://www.w3.org/2000/svg"
 width="512.000000pt" height="512.000000pt" viewBox="0 0 512.000000 512.000000"
 preserveAspectRatio="xMidYMid meet">
<metadata>
Created by potrace 1.14, written by Peter Selinger 2001-2017
</metadata>
<g transform="translate(0.000000,512.000000) scale(0.100000,-0.100000)"
fill="#000000" stroke="none">
<path d="M0 2560 l0 -2560 2560 0 2560 0 0 2560 0 2560 -2560 0 -2560 0 0
-2560z m1244 2468 c14 -20 16 -90 16 -568 0 -478 -2 -548 -16 -568 l-15 -22
-564 0 -564 0 -15 22 c-14 20 -16 90 -16 568 0 478 2 548 16 568 l15 22 564 0
564 0 15 -22z m3316 -326 c44 -21 73 -76 64 -121 -6 -30 -26 -55 -68 -84 -17
-13 -16 -15 18 -35 64 -38 81 -117 40 -180 -39 -60 -164 -80 -244 -39 -52 26
-70 55 -70 116 0 35 6 49 33 75 17 18 39 35 47 38 11 3 5 13 -22 37 -47 41
-57 85 -32 137 11 22 34 45 54 56 45 23 133 24 180 0z m-2570 -1297 c88 -45
94 -146 11 -202 l-33 -23 24 -9 c42 -16 78 -68 78 -111 0 -83 -49 -128 -149
-137 -70 -7 -118 8 -155 46 -54 57 -40 149 31 192 l34 21 -30 19 c-38 23 -51
48 -51 97 0 46 29 88 74 108 42 18 130 17 166 -1z m2310 -195 l0 -210 50 0 50
0 0 -35 0 -35 -150 0 -150 0 0 34 c0 34 1 35 48 38 l47 3 3 158 c3 172 6 163
-60 148 l-38 -9 0 39 c0 32 4 40 23 44 12 3 49 11 82 19 105 24 95 45 95 -194z
m468 162 c3 -41 2 -43 -17 -33 -11 6 -36 11 -57 11 -48 0 -108 -57 -118 -114
-9 -47 -3 -54 24 -28 38 36 106 38 157 5 32 -21 57 -93 50 -149 -8 -79 -65
-134 -144 -141 -67 -7 -115 15 -150 68 -27 40 -28 48 -28 158 0 100 3 122 22
156 44 83 101 116 193 113 l65 -3 3 -43z m-2258 -871 c6 -13 10 -211 10 -575
0 -491 -2 -556 -16 -570 -14 -14 -79 -16 -570 -16 -364 0 -562 4 -575 10 -18
10 -19 27 -19 578 0 429 3 571 12 580 9 9 151 12 580 12 551 0 568 -1 578 -19z
m1864 -317 c11 -4 16 -19 16 -45 0 -37 -1 -38 -26 -29 -87 33 -174 -29 -174
-125 l0 -26 26 20 c59 46 145 32 184 -31 17 -27 20 -46 18 -102 -4 -65 -6 -70
-45 -106 -99 -93 -243 -47 -272 88 -32 150 15 293 112 341 41 21 127 28 161
15z m-1314 -214 l0 -210 50 0 50 0 0 -35 0 -35 -150 0 -150 0 0 34 c0 34 1 35
48 38 l47 3 3 158 c3 172 6 163 -60 148 l-38 -9 0 39 c0 32 4 40 23 44 12 3
49 11 82 19 105 24 95 45 95 -194z m468 162 c3 -41 2 -43 -17 -33 -11 6 -36
11 -57 11 -48 0 -108 -57 -118 -114 -9 -47 -3 -54 24 -28 38 36 106 38 157 5
32 -21 57 -93 50 -149 -8 -79 -65 -134 -144 -141 -67 -7 -115 15 -150 68 -27
40 -28 48 -28 158 0 100 3 122 22 156 44 83 101 116 193 113 l65 -3 3 -43z
m1242 -107 l0 -155 30 0 c28 0 30 -3 30 -35 0 -32 -2 -35 -30 -35 -29 0 -30
-1 -30 -50 l0 -50 -45 0 -45 0 0 50 0 50 -105 0 -105 0 0 35 c0 26 18 62 73
147 41 62 86 132 100 156 26 40 29 42 77 42 l50 0 0 -155z m-2940 -1525 l50 0
0 -40 0 -40 -150 0 -150 0 0 40 0 40 50 0 50 0 0 161 c0 136 -2 160 -14 156
-8 -3 -31 -9 -50 -13 l-36 -6 0 39 0 39 98 20 97 20 3 -208 2 -208 50 0z m389
414 c28 -6 31 -10 31 -45 0 -38 -1 -39 -27 -32 -43 12 -79 8 -108 -11 -29 -19
-64 -87 -65 -124 l0 -24 31 26 c40 34 113 36 154 4 55 -43 70 -129 36 -204
-26 -58 -73 -84 -149 -84 -54 0 -65 4 -96 30 -53 47 -69 101 -64 212 3 79 8
101 33 146 48 89 126 125 224 106z m-1498 -14 c41 -12 84 -54 93 -92 9 -39
-17 -95 -54 -116 -34 -20 -37 -28 -12 -36 31 -10 72 -61 78 -97 15 -88 -56
-151 -171 -152 -99 -1 -165 49 -165 125 0 50 21 90 61 115 l31 20 -30 21 c-16
12 -35 35 -42 52 -43 103 80 196 211 160z m2366 -31 c76 -47 60 -166 -27 -201
l-25 -11 31 -8 c74 -21 107 -113 62 -179 -33 -50 -80 -70 -160 -70 -98 0 -118
10 -118 60 l0 41 30 -16 c44 -23 119 -20 147 7 24 23 30 57 13 88 -12 22 -60
40 -106 40 -32 0 -34 2 -34 35 0 35 0 35 45 35 75 0 116 56 80 107 -21 29 -64
37 -114 20 l-41 -15 0 39 c0 36 2 38 43 48 56 13 134 4 174 -20z m409 0 c57
-35 70 -109 33 -186 -12 -24 -55 -75 -100 -116 -43 -41 -79 -77 -79 -80 0 -4
45 -7 100 -7 l100 0 0 -40 0 -40 -160 0 -160 0 0 38 c0 34 8 46 96 132 105
105 124 132 124 184 0 64 -72 86 -150 46 l-40 -20 0 39 c0 44 11 54 77 70 50
13 121 4 159 -20z m639 -3 c44 -19 68 -58 68 -109 0 -60 -25 -102 -112 -184
l-76 -73 93 0 92 0 0 -40 0 -40 -145 0 -145 0 0 38 c0 35 7 46 72 108 107 102
128 130 128 175 0 66 -59 88 -135 49 -22 -11 -41 -20 -42 -20 -4 0 -4 80 0 80
1 0 20 7 42 15 52 18 117 19 160 1z m779 8 c10 -4 16 -18 16 -39 l0 -34 -53 6
c-33 3 -62 1 -76 -6 -30 -16 -61 -70 -61 -105 0 -28 0 -29 20 -11 11 10 42 20
70 23 46 4 52 2 84 -30 107 -107 9 -290 -139 -262 -82 15 -124 85 -125 205 0
123 39 206 114 240 40 18 119 25 150 13z m-364 -39 l0 -35 -80 0 -80 0 0 -50
0 -50 40 0 c85 0 140 -53 140 -134 0 -64 -25 -106 -76 -131 -41 -19 -119 -25
-166 -12 -24 6 -28 12 -28 46 l0 38 45 -15 c40 -13 50 -13 83 0 41 15 59 49
49 90 -8 32 -45 48 -112 48 l-55 0 0 120 0 120 120 0 120 0 0 -35z"/>
<path d="M565 4703 l-50 -18 -3 -52 c-2 -29 -2 -53 0 -53 2 0 25 11 52 25 62
32 90 32 122 -1 46 -45 16 -104 -112 -220 -83 -76 -84 -77 -84 -125 l0 -49
160 0 160 0 0 45 0 45 -97 0 -97 0 81 78 c87 82 122 140 123 202 0 41 -28 92
-64 115 -38 25 -131 29 -191 8z"/>
<path d="M4426 4634 c-23 -23 -20 -67 7 -92 29 -27 38 -27 71 -1 49 38 27 109
-34 109 -16 0 -36 -7 -44 -16z"/>
<path d="M4416 4409 c-33 -39 -33 -72 0 -98 81 -64 173 35 98 104 -36 34 -67
32 -98 -6z"/>
<path d="M1857 3332 c-24 -26 -21 -59 8 -87 28 -29 42 -31 72 -10 52 36 31
115 -31 115 -19 0 -40 -8 -49 -18z"/>
<path d="M1855 3115 c-72 -71 19 -167 99 -104 35 27 34 63 -3 100 -36 35 -64
37 -96 4z"/>
<path d="M4620 3157 c-14 -7 -31 -25 -38 -41 -18 -37 2 -94 40 -116 25 -13 29
-13 55 6 51 39 50 129 -3 153 -30 13 -24 13 -54 -2z"/>
<path d="M1825 2183 l-50 -18 -3 -52 c-2 -29 -2 -53 0 -53 2 0 25 11 52 25 62
32 90 32 122 -1 46 -45 16 -104 -112 -220 -83 -76 -84 -77 -84 -125 l0 -49
160 0 160 0 0 45 0 45 -97 0 -97 0 81 78 c87 82 122 140 123 202 0 41 -28 92
-64 115 -38 25 -131 29 -191 8z"/>
<path d="M4233 1930 c-42 -17 -56 -77 -28 -129 24 -48 63 -54 100 -16 62 61 5
175 -72 145z"/>
<path d="M3380 1917 c-14 -7 -31 -25 -38 -41 -18 -37 2 -94 40 -116 25 -13 29
-13 55 6 51 39 50 129 -3 153 -30 13 -24 13 -54 -2z"/>
<path d="M4615 1982 c-33 -53 -61 -100 -63 -104 -2 -4 26 -8 62 -8 l66 0 0
105 c0 58 -1 105 -2 105 -2 -1 -30 -44 -63 -98z"/>
<path d="M2087 648 c-41 -32 -39 -125 3 -148 56 -30 105 9 104 84 -2 62 -62
98 -107 64z"/>
<path d="M622 824 c-32 -22 -30 -76 4 -103 24 -19 29 -19 54 -6 30 15 40 33
40 70 0 25 -33 55 -60 55 -9 0 -26 -7 -38 -16z"/>
<path d="M611 601 c-56 -53 -30 -121 47 -121 74 0 99 75 41 124 -39 33 -50 33
-88 -3z"/>
<path d="M4756 618 c-24 -34 -20 -85 9 -113 13 -14 31 -25 40 -25 28 0 65 46
65 82 0 49 -24 78 -65 78 -24 0 -39 -7 -49 -22z"/>
</g>
</svg>
